<?xml version="1.0" encoding="utf-8"?>
<!-- Generator: Adobe Illustrator 21.1.0, SVG Export Plug-In . SVG Version: 6.00 Build 0)  -->
<svg version="1.1" id="Layer_1" xmlns="http://www.w3.org/2000/svg" xmlns:xlink="http://www.w3.org/1999/xlink" x="0px" y="0px"
	 viewBox="0 0 165.1 341.8" style="enable-background:new 0 0 165.1 341.8;" xml:space="preserve">
<style type="text/css">
	.st0{fill:#FFFFFF;}
	.st1{fill:#DFBA9C;}
	.st2{fill:#E42867;}
	.st3{fill:#9CD7D8;}
	.st4{fill:#E2DC22;}
	.st5{fill:#FFFFFF;stroke:#FFFFFF;stroke-width:3;stroke-miterlimit:10;}
	.st6{fill:#58595B;stroke:#58595B;stroke-width:0.35;stroke-miterlimit:10;}
	.st7{font-family:'Calibri-Bold';}
	.st8{font-size:13px;}
</style>
<path class="st0" d="M42.2,4.7c2-0.2,3.9-0.3,5.9-0.3c10.4,0.1,20.8,0,31.2,0c10.3,0,20.5,0,30.8,0c9.2,0,18.2-0.7,26.9,3
	c3.8,1.6,7.4,3.8,10.5,6.5c6.3,5.4,10,10.8,12.2,19c2.6,9.5,2.3,20.1,2.3,29.9c-0.1,21.6,0,43.2,0,64.8c0,13.4,0,26.8,0,40.2
	c0,14.8,0,29.6,0,44.4c0,12.2,0.5,13.8-6,25.5c-3,5.4-13.5,13.8-19.2,16c-7.2,2.8-19.3,3.3-25.5,3.4c-0.4,0-0.9,0-1.4,0
	c0,0.7,0,1.3,0,1.8c0,25.3-0.7,40.9-0.7,66.1c0,7.3-5.9,12.1-11.8,14.5c-2.9,1.2-5.9,2-9,2.1c-3.4,0.2-6.7-0.5-10-1.6
	c-6.1-2-13.8-7.1-14.2-14.8c0.1-25,0.1-41.5,0.1-66.5c0-0.6,0-1.1,0-1.8c-0.6,0-1,0-1.5,0c-8.7,0-18.7,0.1-27.2-2.1
	c-14.6-3.9-29-19.8-29.4-38.1c-0.1-4.7-0.2-9.6-0.2-14.3c0-5.2,0-10.3,0-15.5c0-18.7,0-37.4,0-56c0-22,0-44,0-66.1
	c0-9.8-0.9-19.7,0.9-29.4c1.6-8.7,6.1-13.6,12.4-19.4c1.2-1.2,2.6-2.3,3.9-3.3C29,8.7,35.4,5.4,42.2,4.7z"/>
<path id="XMLID_1_" class="st1" d="M87.1,210.2c-10.5,0-19.1,6.2-19.1,13.8v100.5c0,7.6,8.6,13.8,19.1,13.8s19.1-6.2,19.1-13.8
	V224.1C106.2,216.5,97.6,210.2,87.1,210.2z"/>
<path class="st2" d="M159.3,69.5c0,0.8,0,3,0,3.4c-0.1,24.2,0,48.9,0,72.7c0,1-0.2,0.4-1,1c-29.2,25.6-58.4,51.3-87.6,76.9
	c-10.5,9.2-21.1,18.5-31.6,27.7c-0.3,0.3-0.7,0.8-0.7,0.8s-0.2-0.1-0.4-0.1c-12.2-4.2-21.9-12.2-27-25.2c-1.5-4-2.2-8.1-2.2-12.4
	c0-3.4,0-6.7,0-10.1c0-0.3,0-2.5,0-2.5s0.5-0.4,0.7-0.6c26.6-23.4,53.3-45.3,79.9-68.7C112.3,112.5,158.8,70,159.3,69.5z"/>
<path class="st3" d="M9,202.1c0-0.8,0-1.6,0-2c0-23.1,0-45.9,0-68.9c0-0.7,0-2.8,0-2.8s0.3-0.3,0.4-0.4
	c20.4-17.9,40.8-35.8,61.2-53.7c18.2-16,36.3-31.9,54.6-47.9c5.1-4.4,7.9-6.9,13-11.4c0.2-0.1,2.2-1.9,2.4-2.1
	c5.1,3.6,10.2,8.7,13.4,14.3c3.6,6.3,5.6,13.1,5.4,20.5c-0.1,7-0.1,12-0.1,19c0,0.6,0,2.2,0,3.5c0,0.3-9.8,8.9-10.1,9.1
	c-26.3,23-43.1,38.9-69.4,62c-23,20.2-46.2,39.1-69.2,59.3C10.3,201,9.7,201.4,9,202.1z"/>
<path class="st4" d="M140.6,12.8C96.7,51.3,53,89.7,9,128.4c0-0.8,0-1.2,0-1.7c0-21.4,0-42.4,0-63.8C30,44.4,51.1,25.5,72.2,7.1
	c17,0,33.9-0.1,50.9,0C129.3,7.2,135.1,9.3,140.6,12.8z"/>
<path class="st4" d="M159.3,145.7c0,0.8,0.1,2.7,0.1,3.2c-0.1,21.3-0.2,42.4-0.1,63.7c0,0.5,0,1.2,0,2.3c0,0.4-0.6,0.5-0.9,0.8
	c-14.1,12.3-28.1,24.6-42.1,37c-0.8,0.7-1.5,1-2.5,1c-22.4,0-44.7,0-67.1,0c-2.3,0-7.7-1-8.7-1.7
	C38.3,251.8,119.3,180.9,159.3,145.7z"/>
<path class="st2" d="M9,62.8c0-0.4,0-2.8,0-2.9C9,55,8.9,50.6,9,45.8c0.2-8.7,3.2-16.4,8.2-23.1c6.7-9,15.5-14,26-15.5
	c0.5-0.1,1.4-0.2,2-0.2C53.1,7,73,7.1,73.8,7.1C53.5,24.9,29.4,44.9,9,62.8z"/>
<path class="st3" d="M117.3,250.9c14-12.3,25.6-21.6,39.6-33.9c0.1,0,2.4-2.4,2.5-2.4c-0.2,1.6-0.2,5.2-0.5,6.8
	c-1.6,8.2-5.8,14.8-11.5,20.4c-6.1,6-13.1,10-21.3,11.4c-2.9,0.5-8.7,0.3-11.7,0.5C114.4,253.5,117.3,251.1,117.3,250.9z"/>
<g>
	<path class="st5" d="M58.6,65.4c0,2.8-0.5,5.3-1.6,7.4c-1.1,2.1-2.5,3.9-4.3,5.3c-1.8,1.4-3.9,2.5-6.3,3.2c-2.4,0.7-5,1.1-7.7,1.1
		c-1.9,0-3.6-0.2-5.2-0.5c-1.6-0.3-3-0.7-4.2-1.1c-1.2-0.4-2.2-0.9-3.1-1.4c-0.8-0.5-1.4-0.9-1.8-1.2c-0.4-0.4-0.6-0.9-0.8-1.6
		c-0.2-0.7-0.2-1.7-0.2-2.9c0-0.9,0-1.6,0.1-2.2c0.1-0.6,0.1-1.1,0.3-1.4s0.3-0.6,0.5-0.8c0.2-0.2,0.5-0.2,0.7-0.2
		c0.4,0,0.9,0.2,1.6,0.7s1.6,1,2.7,1.5c1.1,0.6,2.4,1.1,4,1.5c1.5,0.5,3.3,0.7,5.3,0.7c1.3,0,2.5-0.2,3.6-0.5
		c1.1-0.3,1.9-0.8,2.7-1.4c0.7-0.6,1.3-1.3,1.7-2.2c0.4-0.9,0.6-1.8,0.6-2.9c0-1.2-0.3-2.3-1-3.1c-0.7-0.9-1.5-1.7-2.6-2.3
		c-1.1-0.7-2.3-1.3-3.6-1.9c-1.4-0.6-2.8-1.2-4.2-1.9c-1.4-0.7-2.8-1.4-4.2-2.3c-1.4-0.8-2.6-1.9-3.6-3c-1.1-1.2-1.9-2.6-2.6-4.2
		s-1-3.5-1-5.8c0-2.6,0.5-4.8,1.4-6.8s2.2-3.6,3.9-4.9c1.6-1.3,3.5-2.3,5.7-2.9c2.2-0.6,4.5-1,7-1c1.3,0,2.6,0.1,3.8,0.3
		c1.3,0.2,2.5,0.5,3.6,0.8c1.1,0.3,2.1,0.7,3,1.1c0.9,0.4,1.4,0.8,1.7,1c0.3,0.3,0.5,0.5,0.6,0.7c0.1,0.2,0.2,0.5,0.2,0.8
		c0.1,0.3,0.1,0.7,0.1,1.2c0,0.5,0,1.1,0,1.8c0,0.8,0,1.5-0.1,2s-0.1,1-0.2,1.4c-0.1,0.4-0.2,0.6-0.4,0.8c-0.2,0.2-0.4,0.2-0.7,0.2
		c-0.3,0-0.8-0.2-1.5-0.6c-0.7-0.4-1.5-0.8-2.5-1.3c-1-0.5-2.1-0.9-3.4-1.2c-1.3-0.4-2.7-0.6-4.2-0.6c-1.2,0-2.2,0.1-3.1,0.4
		c-0.9,0.3-1.6,0.7-2.2,1.2c-0.6,0.5-1,1.1-1.3,1.9c-0.3,0.7-0.4,1.5-0.4,2.3c0,1.2,0.3,2.2,1,3.1c0.7,0.9,1.5,1.7,2.6,2.3
		c1.1,0.7,2.3,1.3,3.7,1.9c1.4,0.6,2.8,1.2,4.2,1.9c1.4,0.7,2.9,1.4,4.2,2.3c1.4,0.8,2.6,1.9,3.7,3s2,2.6,2.6,4.2
		C58.3,61.4,58.6,63.3,58.6,65.4z"/>
	<path class="st5" d="M102.3,77.3c0,0.8,0,1.5-0.1,2c-0.1,0.5-0.2,1-0.3,1.3c-0.1,0.3-0.3,0.6-0.5,0.7c-0.2,0.2-0.4,0.2-0.7,0.2h-27
		c-0.9,0-1.7-0.3-2.3-0.8c-0.6-0.5-0.9-1.4-0.9-2.6V31.2c0-1.2,0.3-2.1,0.9-2.6c0.6-0.5,1.4-0.8,2.3-0.8h26.9c0.2,0,0.5,0.1,0.7,0.2
		c0.2,0.1,0.4,0.4,0.5,0.7c0.1,0.3,0.2,0.8,0.3,1.3c0.1,0.5,0.1,1.2,0.1,2.1c0,0.8,0,1.4-0.1,2c-0.1,0.5-0.2,1-0.3,1.3
		c-0.1,0.3-0.3,0.6-0.5,0.7c-0.2,0.2-0.4,0.2-0.7,0.2H81.3v13.1h16.3c0.2,0,0.5,0.1,0.7,0.2c0.2,0.2,0.4,0.4,0.5,0.7
		c0.1,0.3,0.2,0.7,0.3,1.3c0.1,0.5,0.1,1.2,0.1,2c0,0.8,0,1.5-0.1,2c-0.1,0.5-0.2,1-0.3,1.3c-0.1,0.3-0.3,0.5-0.5,0.7
		c-0.2,0.1-0.4,0.2-0.7,0.2H81.3V73h19.4c0.2,0,0.5,0.1,0.7,0.2c0.2,0.2,0.4,0.4,0.5,0.7c0.1,0.3,0.2,0.8,0.3,1.3
		C102.3,75.8,102.3,76.5,102.3,77.3z"/>
	<path class="st5" d="M144.9,77c0,0.8,0,1.5-0.1,2.1c-0.1,0.6-0.2,1-0.3,1.4c-0.1,0.4-0.3,0.6-0.5,0.8s-0.5,0.2-0.7,0.2h-24.7
		c-0.9,0-1.7-0.3-2.3-0.8c-0.6-0.5-0.9-1.4-0.9-2.6V29.2c0-0.3,0.1-0.5,0.3-0.7c0.2-0.2,0.5-0.4,0.9-0.5s1-0.2,1.7-0.3
		c0.7-0.1,1.6-0.1,2.6-0.1c1.1,0,2,0,2.7,0.1c0.7,0.1,1.2,0.2,1.7,0.3s0.7,0.3,0.9,0.5c0.2,0.2,0.3,0.5,0.3,0.7v43.3h16.9
		c0.3,0,0.5,0.1,0.7,0.2c0.2,0.2,0.4,0.4,0.5,0.7c0.1,0.3,0.2,0.8,0.3,1.4C144.9,75.5,144.9,76.2,144.9,77z"/>
</g>
<g>
	<path class="st5" d="M71.2,153.4c0,1,0,1.8-0.1,2.5c-0.1,0.7-0.2,1.3-0.4,1.7c-0.2,0.5-0.4,0.8-0.6,1c-0.3,0.2-0.5,0.3-0.9,0.3
		H39.5c-1.1,0-2-0.3-2.8-1s-1.1-1.7-1.1-3.2V95.8c0-0.3,0.1-0.6,0.3-0.9c0.2-0.3,0.6-0.5,1.1-0.7c0.5-0.2,1.2-0.3,2-0.4
		c0.9-0.1,1.9-0.2,3.2-0.2c1.3,0,2.4,0.1,3.2,0.2c0.8,0.1,1.5,0.2,2,0.4c0.5,0.2,0.9,0.4,1.1,0.7c0.2,0.3,0.3,0.6,0.3,0.9V148h20.4
		c0.3,0,0.6,0.1,0.9,0.3c0.3,0.2,0.5,0.5,0.6,0.9c0.2,0.4,0.3,1,0.4,1.7C71.2,151.6,71.2,152.4,71.2,153.4z"/>
	<path class="st5" d="M118.2,157.1c0,0.3-0.1,0.6-0.3,0.9c-0.2,0.3-0.6,0.5-1.1,0.7c-0.5,0.2-1.2,0.3-2,0.4
		c-0.8,0.1-1.9,0.2-3.2,0.2c-1.3,0-2.3-0.1-3.2-0.2c-0.9-0.1-1.5-0.2-2-0.4c-0.5-0.2-0.9-0.4-1.1-0.7c-0.2-0.3-0.3-0.6-0.3-0.9V95.8
		c0-0.3,0.1-0.6,0.3-0.9c0.2-0.3,0.6-0.5,1.1-0.7c0.5-0.2,1.2-0.3,2-0.4c0.8-0.1,1.9-0.2,3.2-0.2c1.3,0,2.4,0.1,3.2,0.2
		c0.8,0.1,1.5,0.2,2,0.4c0.5,0.2,0.9,0.4,1.1,0.7c0.2,0.3,0.3,0.6,0.3,0.9V157.1z"/>
	<path class="st5" d="M73.5,215.9c0,3.2-0.6,6.1-1.8,8.5c-1.2,2.4-2.8,4.5-4.9,6.1c-2.1,1.6-4.5,2.9-7.2,3.7
		c-2.8,0.8-5.7,1.2-8.8,1.2c-2.1,0-4.1-0.2-5.9-0.5c-1.8-0.3-3.4-0.8-4.8-1.3c-1.4-0.5-2.6-1-3.5-1.5c-0.9-0.5-1.6-1-2-1.4
		c-0.4-0.4-0.7-1-0.9-1.8c-0.2-0.8-0.3-1.9-0.3-3.4c0-1,0-1.8,0.1-2.5c0.1-0.7,0.2-1.2,0.3-1.6c0.1-0.4,0.3-0.7,0.6-0.9
		c0.2-0.2,0.5-0.3,0.8-0.3c0.4,0,1.1,0.3,1.9,0.8c0.8,0.5,1.8,1.1,3.1,1.7c1.3,0.6,2.8,1.2,4.5,1.7c1.8,0.5,3.8,0.8,6.1,0.8
		c1.5,0,2.9-0.2,4.1-0.5c1.2-0.4,2.2-0.9,3.1-1.5c0.8-0.7,1.5-1.5,1.9-2.5c0.4-1,0.7-2.1,0.7-3.3c0-1.4-0.4-2.6-1.1-3.6
		c-0.8-1-1.8-1.9-3-2.7c-1.2-0.8-2.6-1.5-4.2-2.2c-1.6-0.7-3.2-1.4-4.8-2.2c-1.6-0.8-3.3-1.6-4.8-2.6c-1.6-1-2.9-2.1-4.2-3.5
		c-1.2-1.3-2.2-2.9-3-4.8c-0.8-1.8-1.1-4-1.1-6.6c0-2.9,0.5-5.5,1.6-7.8c1.1-2.2,2.6-4.1,4.4-5.6s4-2.6,6.6-3.3
		c2.5-0.7,5.2-1.1,8-1.1c1.5,0,2.9,0.1,4.4,0.3c1.5,0.2,2.8,0.5,4.1,0.9c1.3,0.4,2.4,0.8,3.4,1.3c1,0.5,1.6,0.9,2,1.2
		c0.3,0.3,0.5,0.6,0.6,0.8c0.1,0.2,0.2,0.5,0.3,0.9c0.1,0.4,0.1,0.8,0.2,1.4c0,0.6,0,1.2,0,2.1c0,0.9,0,1.7-0.1,2.3
		c0,0.6-0.1,1.2-0.2,1.6c-0.1,0.4-0.3,0.7-0.5,0.9c-0.2,0.2-0.5,0.3-0.8,0.3c-0.3,0-0.9-0.2-1.7-0.7c-0.8-0.4-1.7-0.9-2.8-1.5
		c-1.1-0.5-2.4-1-3.9-1.4c-1.5-0.4-3.1-0.6-4.8-0.6c-1.4,0-2.6,0.2-3.6,0.5c-1,0.3-1.9,0.8-2.5,1.4c-0.7,0.6-1.2,1.3-1.5,2.1
		c-0.3,0.8-0.5,1.7-0.5,2.6c0,1.4,0.4,2.5,1.1,3.5c0.7,1,1.7,1.9,3,2.7c1.3,0.8,2.7,1.5,4.3,2.2c1.6,0.7,3.2,1.4,4.9,2.2
		c1.6,0.8,3.3,1.6,4.9,2.6c1.6,1,3,2.1,4.2,3.5c1.2,1.3,2.2,2.9,3,4.8C73.1,211.2,73.5,213.4,73.5,215.9z"/>
	<path class="st5" d="M135.1,177.9c0,0.9,0,1.7-0.1,2.4c-0.1,0.7-0.2,1.2-0.4,1.6c-0.2,0.4-0.4,0.7-0.6,0.9
		c-0.2,0.2-0.5,0.3-0.8,0.3h-15.4v49.6c0,0.3-0.1,0.6-0.3,0.9c-0.2,0.3-0.5,0.5-1,0.6c-0.5,0.2-1.1,0.3-1.9,0.4
		c-0.8,0.1-1.8,0.1-3,0.1c-1.2,0-2.2,0-3-0.1c-0.8-0.1-1.5-0.2-1.9-0.4c-0.5-0.2-0.8-0.4-1-0.6c-0.2-0.3-0.3-0.5-0.3-0.9V183H89.8
		c-0.3,0-0.6-0.1-0.8-0.3c-0.2-0.2-0.4-0.5-0.6-0.9c-0.2-0.4-0.3-0.9-0.4-1.6c-0.1-0.7-0.1-1.4-0.1-2.4c0-1,0-1.8,0.1-2.4
		c0.1-0.7,0.2-1.2,0.4-1.6c0.2-0.4,0.3-0.7,0.6-0.9c0.2-0.2,0.5-0.3,0.8-0.3h43.4c0.3,0,0.5,0.1,0.8,0.3c0.2,0.2,0.4,0.5,0.6,0.9
		c0.2,0.4,0.3,0.9,0.4,1.6C135.1,176.1,135.1,176.9,135.1,177.9z"/>
</g>
<text transform="matrix(0 -1 1 0 102.2955 285.5475)" class="st6 st7 st8">WHA</text>
</svg>
